<svg width="13" height="14" viewBox="0 0 13 14" fill="none" xmlns="http://www.w3.org/2000/svg">
<g clip-path="url(#clip0_4_5107)">
<path d="M11.9167 6.50163V6.99997C11.916 8.16803 11.5378 9.30458 10.8384 10.2401C10.139 11.1757 9.15593 11.8601 8.0358 12.1912C6.91567 12.5224 5.7185 12.4827 4.62282 12.0779C3.52714 11.6731 2.59167 10.9249 1.95592 9.94504C1.32017 8.96515 1.0182 7.806 1.09505 6.64047C1.17191 5.47494 1.62347 4.36548 2.38238 3.47755C3.1413 2.58962 4.16691 1.9708 5.30625 1.71338C6.44559 1.45596 7.63763 1.57373 8.70457 2.04913M11.9166 2.66663L6.49998 8.08872L4.87498 6.46372" stroke="#F5F5F5" stroke-width="1.6" stroke-linecap="round" stroke-linejoin="round"/>
</g>
<defs>
<clipPath id="clip0_4_5107">
<rect width="13" height="13" fill="white" transform="translate(0 0.5)"/>
</clipPath>
</defs>
</svg>
